<svg viewBox="0 0 511.894 511.894" xmlns="http://www.w3.org/2000/svg">
    <g>
        <path d="m395.947 145.947h-280c-5.522 0-10 4.477-10 10v200c0 5.523 4.478 10 10 10h280c5.522 0 10-4.477 10-10v-200c0-5.523-4.477-10-10-10zm-270 20h260v180h-5.857l-97.071-97.071c-3.906-3.905-10.236-3.905-14.143 0l-32.929 32.929-12.929-12.929c-3.906-3.905-10.236-3.905-14.143 0l-77.071 77.071h-5.857zm225.858 180h-191.715l55.857-55.858 12.929 12.929c3.906 3.905 10.236 3.905 14.143 0l32.929-32.929z"/>
        <path d="m325.947 235.947c11.046 0 20-8.954 20-20-1.053-26.53-38.951-26.522-40 0 0 11.046 8.955 20 20 20z"/>
        <path d="m501.947 385.947h-56v-260h56c13.268-.529 13.258-19.476 0-20h-56v-56c-.529-13.268-19.476-13.258-20 0v56h-340v-56c-.528-13.268-19.476-13.258-20 0v56h-56c-13.268.529-13.258 19.476 0 20h56v260h-56c-13.268.529-13.258 19.476 0 20h56v56c.528 13.268 19.476 13.258 20 0v-56h340v56c.528 13.268 19.476 13.258 20 0v-56h56c13.268-.528 13.258-19.476 0-20zm-416 0v-260h340v260z"/>
    </g>
</svg>